/* XPM */
static char *wicd_client[] = {
/* columns rows colors chars-per-pixel */
"32 32 118 2",
"   c black",
".  c #000100",
"X  c #000200",
"o  c #000300",
"O  c #000301",
"+  c #000401",
"@  c #000501",
"#  c #000601",
"$  c #000801",
"%  c #000901",
"&  c #000902",
"*  c #000B02",
"=  c #000F02",
"-  c #001303",
";  c #001403",
":  c #001804",
">  c #001B04",
",  c #001E05",
"<  c #001F05",
"1  c #002105",
"2  c #002205",
"3  c #002406",
"4  c #002706",
"5  c #002907",
"6  c #002D07",
"7  c #003008",
"8  c #003108",
"9  c #003408",
"0  c #003509",
"q  c #003709",
"w  c #003809",
"e  c #003909",
"r  c #003A09",
"t  c #003C0A",
"y  c #003F0A",
"u  c #00400A",
"i  c #00420B",
"p  c #00440B",
"a  c #00450B",
"s  c #00460B",
"d  c #004A0C",
"f  c #004C0C",
"g  c #004E0D",
"h  c #004F0D",
"j  c #00520D",
"k  c #00530D",
"l  c #00570E",
"z  c #00590E",
"x  c #005D0F",
"c  c #006110",
"v  c #006410",
"b  c #006510",
"n  c #006811",
"m  c #006A11",
"M  c #006D11",
"N  c #006E12",
"B  c #007012",
"V  c #007312",
"C  c #007613",
"Z  c #007913",
"A  c #008115",
"S  c #008215",
"D  c #008315",
"F  c #008616",
"G  c #008716",
"H  c #008A16",
"J  c #008B16",
"K  c #008C16",
"L  c #008E17",
"P  c #008F17",
"I  c #009017",
"U  c #009117",
"Y  c #009518",
"T  c #009D19",
"R  c #00A01A",
"E  c #00A61B",
"W  c #00A71B",
"Q  c #00A81B",
"!  c #00A91B",
"~  c #00AF1C",
"^  c #00B01C",
"/  c #00B11D",
"(  c #00B21D",
")  c #00B31D",
"_  c #00B91E",
"`  c #00BA1E",
"'  c #00BB1E",
"]  c #00BC1E",
"[  c #00BF1F",
"{  c #00C11F",
"}  c #00C820",
"|  c #00CA20",
" . c #00CE21",
".. c #00D222",
"X. c #00D322",
"o. c #00D422",
"O. c #00D723",
"+. c #00DB23",
"@. c #00DC23",
"#. c #00DD24",
"$. c #00E024",
"%. c #00E124",
"&. c #00E725",
"*. c #00ED26",
"=. c #00EF26",
"-. c #00EF27",
";. c #00F127",
":. c #00F227",
">. c #00F427",
",. c #00F527",
"<. c #00F828",
"1. c #00F928",
"2. c #00FB28",
"3. c #00FC29",
"4. c #00FD29",
"5. c #00FE29",
"6. c #00FF29",
"7. c None",
/* pixels */
"7.7.7.7.7.7.7.7.7.7.7.7.7.7.7.7.7.7.7.7.7.7.7.7.7.7.7.7.7.7.7.7.",
"7.7.7.7.7.7.  ;   7.7.7.7.7.7.7.7.7.7.7.7.7.7.  -   7.7.7.7.7.7.",
"7.7.7.7.7.5 Q < 7.7.7.7.7.7.7.7.7.7.7.7.7.7.7.7.> Q 6 7.7.7.7.7.",
"7.7.7.7.a :.h 7.7.7.7.7.7.7.7.7.7.7.7.7.7.7.7.7.7.s >.f 7.7.7.7.",
"7.7.7.0 ,.'   7.7.7.7.7.7.7.7.7.7.7.7.7.7.7.7.7.7.  ( <.t 7.7.7.",
"7.7.* +.6.i 7.7.7.7.7.7.7.7.7.7.7.7.7.7.7.7.7.7.7.7.e 6.%.= 7.7.",
"7.7.Z 6.#.. 7.7.7.7.7.7.7.7.7.7.7.7.7.7.7.7.7.7.7.7.  o.6.S 7.7.",
"7.@ &.6.P 7.7.7.7.7.v l 7.7.7.7.7.7.7.7.j m 7.7.7.7.7.F 6.*.% 7.",
"7.a 6.6.k 7.7.7.7.j { 7.7.7.7.7.7.7.7.7.7.` z 7.7.7.7.d 6.6.g 7.",
"7.G 6.6.4 7.7.7.7.| C 7.7.7.7.7.7.7.7.7.7.B ..7.7.7.7., 6.6.I 7.",
"  ) 6.6.& 7.7.7.y 6.u 7.7.7.        7.7.7.9 6.d 7.7.7.o 3.6.]   ",
"  | 6.1.  7.7.7.M 6.7.7.7.            7.7.7.2.V 7.7.7.  -.6.X.  ",
"   .6.<.  7.7.7.V 6.7.7.7.            7.7.7.<.Z 7.7.7.  =.6.O.  ",
"  [ 6.6.$ 7.7.7.x 6.7 7.7.7.        7.7.7.1 6.b 7.7.7.X 2.6.}   ",
"7.T 6.6.3 7.7.7.7.;.n 7.7.7.        7.7.7.c ,.7.7.7.7.> 6.6.E   ",
"7.b 6.6.h 7.7.7.7.L W 7.7.7.        7.7.7.R Y 7.7.7.7.s 6.6.N 7.",
"7.> 3.6.J 7.7.7.7.7.' s 7.7.        7.7.y [ 7.7.7.7.7.A 6.5.2 7.",
"7.  ~ 6.O.  7.7.7.7.7.z O 7.        7.X l 7.7.7.7.7.   .6._   7.",
"7.7.7 2.6.r 7.7.7.7.7.7.7.7.        7.7.7.7.7.7.7.7.8 6.4.q 7.7.",
"7.7.  D 6./   7.7.7.7.7.7.7.        7.7.7.7.7.7.7.  Q 6.K   7.7.",
"7.7.7.O ! 6.p 7.7.7.7.7.7.7.        7.7.7.7.7.7.7.t 5.^ @ 7.7.7.",
"7.7.7.7.+ H $.: 7.7.7.7.7.7.        7.7.7.7.7.7.; @.U # 7.7.7.7.",
"7.7.7.7.7.7.9 V $ 7.7.7.7.7.        7.7.7.7.7.# B w   7.7.7.7.7.",
"7.7.7.7.7.7.7.7.    7.7.7.7.        7.7.7.7.    7.7.7.7.7.7.7.7.",
"7.7.7.7.7.7.7.7.7.7.7.7.7.7.        7.7.7.7.7.7.7.7.7.7.7.7.7.7.",
"7.7.7.7.7.7.7.7.7.7.7.7.7.7.        7.7.7.7.7.7.7.7.7.7.7.7.7.7.",
"7.7.7.7.7.7.7.7.7.7.7.7.7.7.        7.7.7.7.7.7.7.7.7.7.7.7.7.7.",
"7.7.7.7.7.7.7.7.7.7.7.7.7.7.        7.7.7.7.7.7.7.7.7.7.7.7.7.7.",
"7.7.7.7.7.7.7.7.7.7.                        7.7.7.7.7.7.7.7.7.7.",
"7.7.7.7.7.7.7.7.7.7.                        7.7.7.7.7.7.7.7.7.7.",
"7.7.7.7.7.7.7.7.7.7.                        7.7.7.7.7.7.7.7.7.7.",
"7.7.7.7.7.7.7.7.7.7.                        7.7.7.7.7.7.7.7.7.7."
};
